<!-- Generator: Adobe Illustrator 21.0.0, SVG Export Plug-In  -->
<svg version="1.1"
	 xmlns="http://www.w3.org/2000/svg" xmlns:xlink="http://www.w3.org/1999/xlink" xmlns:a="http://ns.adobe.com/AdobeSVGViewerExtensions/3.0/"
	 x="0px" y="0px" width="670.3px" height="126.3px" viewBox="0 0 670.3 126.3" style="enable-background:new 0 0 670.3 126.3;"
	 xml:space="preserve">
<style type="text/css">
	.st0{fill:#FFFFFF;stroke:#FFFFFF;stroke-miterlimit:10;}
	.st1{fill:none;stroke:#FFFFFF;stroke-width:15;stroke-linecap:round;stroke-linejoin:round;}
	.st2{fill:#7C302C;}
	.st3{fill:#FFFFFF;stroke:#FFFFFF;stroke-width:7;stroke-miterlimit:10;}
	.st4{fill:#E6B950;stroke:#6C1722;stroke-miterlimit:10;}
	.st5{fill:#DC9B35;stroke:#000000;stroke-miterlimit:10;}
	.st6{fill:#F5DB3F;}
	.st7{fill:url(#SVGID_1_);}
	.st8{fill:none;stroke:#6C1722;stroke-miterlimit:10;}
	.st9{fill:url(#SVGID_2_);stroke:#6C1722;stroke-miterlimit:10;}
	.st10{fill:none;stroke:url(#SVGID_3_);stroke-width:17;stroke-linecap:round;stroke-linejoin:round;}
	.st11{fill:none;stroke:url(#SVGID_4_);stroke-width:17;stroke-linecap:round;stroke-linejoin:round;}
	.st12{fill:none;stroke:url(#SVGID_5_);stroke-width:17;stroke-linecap:round;stroke-linejoin:round;}
	.st13{fill:none;stroke:url(#SVGID_6_);stroke-width:17;stroke-linecap:round;stroke-linejoin:round;}
	.st14{fill:none;stroke:url(#SVGID_7_);stroke-width:17;stroke-linecap:round;stroke-linejoin:round;}
	.st15{fill:none;stroke:url(#SVGID_8_);stroke-width:17;stroke-linecap:round;stroke-linejoin:round;}
	.st16{fill:none;stroke:url(#SVGID_9_);stroke-width:17;stroke-linecap:round;stroke-linejoin:round;}
	.st17{fill:#FFFFFF;}
	.st18{fill:none;stroke:#009BDB;stroke-width:17;stroke-linecap:round;stroke-linejoin:round;}
	.st19{fill:url(#SVGID_10_);}
	.st20{fill:url(#SVGID_11_);stroke:#6C1722;stroke-miterlimit:10;}
	.st21{fill:none;stroke:url(#SVGID_12_);stroke-width:17;stroke-linecap:round;stroke-linejoin:round;}
	.st22{fill:none;stroke:url(#SVGID_13_);stroke-width:17;stroke-linecap:round;stroke-linejoin:round;}
	.st23{fill:none;stroke:url(#SVGID_14_);stroke-width:17;stroke-linecap:round;stroke-linejoin:round;}
	.st24{fill:none;stroke:url(#SVGID_15_);stroke-width:17;stroke-linecap:round;stroke-linejoin:round;}
	.st25{fill:none;stroke:url(#SVGID_16_);stroke-width:17;stroke-linecap:round;stroke-linejoin:round;}
	.st26{fill:none;stroke:url(#SVGID_17_);stroke-width:17;stroke-linecap:round;stroke-linejoin:round;}
	.st27{fill:none;stroke:url(#SVGID_18_);stroke-width:17;stroke-linecap:round;stroke-linejoin:round;}
</style>
<defs>
</defs>
<g>
	<g>
		<path class="st0" d="M138.1,8.2c0,0.6-1.7,1.7-5.1,3.3c-3.5,1.6-7.4,2.9-11.6,4.1c-7.3,6.1-13.4,12.7-18.4,19.8
			c-5,7.2-10.6,17.3-16.7,30.4H88c7.2,0,13.2-2.6,18.1-7.9c2.4-2.6,4.1-6.1,5.1-10.4c0.2-0.7,0.4-1,0.8-1c0.4,0,0.6,0.2,0.6,0.6
			c0,4.7-2.6,9.2-7.8,13.4c-5.2,4.2-10.7,6.3-16.6,6.3c-0.9,0-1.6,0-2.2-0.1c-0.3,0.5-1.5,3.2-3.8,7.8C76.8,85.3,72.3,93,68.7,97.6
			c-3.6,4.7-8.3,8.8-14.1,12.4c-9.2,5.8-18.6,8.7-28.2,8.7c-5.5,0-10.1-1.2-13.6-3.7c-3.6-2.5-5.3-5.7-5.3-9.5
			c0-2.1,0.6-3.9,1.8-5.4c1.2-1.5,2.7-2.2,4.4-2.2c2.8,0,4.2,1.4,4.2,4.3c0,3.4-1.5,5.1-4.6,5.1c-2.2,0-3.4-1.4-3.5-4.1
			c0-0.2,0-0.3-0.1-0.4c-0.7,0-1.1,1-1.1,3c0,3.3,1.7,6.1,5,8.4c3.4,2.3,7.6,3.4,12.7,3.4c10.8,0,20.2-4.4,28.1-13.3
			c3.1-3.5,6.1-7.6,8.9-12.5c4.6-8.2,9.2-16.4,13.9-24.6l1-1.8c-4.3-1.3-7.7-3.6-10.2-7c-2.5-3.3-3.8-7.1-3.8-11.4
			c0-7.6,3.2-14,9.5-19.1c3.7-3,7.5-5.1,11.3-6.3c3.8-1.2,10.6-2.4,20.5-3.6c4.3-0.5,9.5-1.5,15.5-3c7.9-5,13.3-7.6,16.4-7.6
			C137.8,7.5,138.1,7.7,138.1,8.2z M119.7,16.1c-2.9,0.7-6.8,1.6-11.7,2.7c-8,1.8-14,3.5-18.2,5.3c-4.1,1.7-7.9,4.1-11.4,7
			c-7.3,6.2-10.9,12.8-10.9,19.6c0,6.7,3.7,11.3,11.2,13.8C91.4,41.5,105.1,25.3,119.7,16.1z"/>
		<path class="st0" d="M122.8,76.3c0,0.1-0.3,0.5-0.6,1l-2.7,3.8c-8,11.1-14,16.6-18.2,16.6c-2,0-3.7-0.7-5-2.1
			c-1.3-1.4-2-3.2-2-5.3c0-2.5,1.5-6.2,4.4-11.2l9.9-16.8c1.3,0.3,2.3,0.4,3.1,0.4c1.1,0,2.8-0.1,4.8-0.4L102,85.9
			c-2.1,3.4-3.1,6.1-3.1,7.9c0,1.9,1,2.9,3,2.9c3.8,0,10.4-6.7,19.9-20.2c0.2-0.4,0.4-0.6,0.6-0.6C122.7,75.9,122.8,76,122.8,76.3z
			 M121.9,50c0,1.5-0.6,2.9-1.9,4.2c-1.2,1.3-2.6,1.9-4.1,1.9c-1.9,0-2.9-1-2.9-2.9c0-1.4,0.7-2.7,2-4c1.3-1.3,2.7-1.9,4.1-1.9
			C121,47.3,121.9,48.2,121.9,50z"/>
		<path class="st0" d="M157,32.1l-28.5,45c4.4-6.1,7.8-10.2,10-12.3c2.2-2.1,4.3-3.1,6.3-3.1c2.4,0,4.3,1,5.8,2.9
			c1.5,1.9,2.3,4.3,2.3,7.3c0,6.4-4.1,12.7-12.2,18.9c-6.1,4.6-11.4,6.9-16.1,6.9c-2.2,0-4-0.8-5.4-2.5c-1.4-1.7-2.1-3.8-2.1-6.5
			c0-3.2,2-8,6.1-14.5l26.3-42.1c1.1,0.3,2.4,0.5,3.7,0.5C154.1,32.4,155.4,32.3,157,32.1z M148.2,66.9c0-2.8-1.2-4.3-3.6-4.3
			c-3.1,0-8.4,5.1-15.8,15.3c-5.6,7.6-8.4,12.7-8.4,15.4c0,2.2,1.1,3.4,3.3,3.4c3.8,0,8.8-3.8,15.1-11.4
			C145,77.7,148.2,71.6,148.2,66.9z"/>
		<path class="st0" d="M194.7,76.2c0,0.7-1.2,2.3-3.7,4.7c-3.7,3.7-7.2,5.6-10.3,5.6c-1.3,0-2.5-0.3-3.5-0.8
			c-5.6,7.9-10.8,11.9-15.8,11.9c-2.5,0-4.7-1-6.5-3.1c-1.8-2.1-2.7-4.6-2.7-7.5c0-6.5,4.3-12.8,12.8-18.9c6-4.3,11-6.4,14.9-6.4
			c3.6,0,5.5,1.9,5.5,5.8c0,4.9-2.6,10.7-7.7,17.6c0.8,0.5,1.8,0.8,2.9,0.8c1.9,0,4.1-0.9,6.7-2.7c2.5-1.8,4.6-3.9,6.2-6.4
			c0.5-0.6,0.8-0.9,1-0.9C194.6,76,194.7,76,194.7,76.2z M184.4,67.7c0-3.4-1.5-5.1-4.6-5.1c-3.9,0-8.5,3.7-14.1,11
			c-5.5,7.4-8.3,13.6-8.3,18.6c0,2.9,1.4,4.4,4.2,4.4c4.6,0,9.6-3.8,15-11.3c-1.2-1.4-1.8-2.8-1.8-4.2c0-2.1,0.8-4.2,2.5-6.4
			c1.7-2.2,3.3-3.3,4.8-3.3c0.7,0,1.1,0.4,1.4,1.3C184.1,71.1,184.4,69.5,184.4,67.7z"/>
		<path class="st0" d="M239.5,76.3c0,0.9-3.1,5-9.3,12.3c-5,6-8.9,9-11.8,9c-1.9,0-3.5-0.7-4.8-2.2c-1.2-1.5-1.8-3.3-1.8-5.5
			c0-2.3,0.7-4.8,2-7.4c-4.2,5.9-7.5,9.9-9.7,12c-2.2,2.1-4.4,3.1-6.5,3.1c-2.2,0-4.1-1-5.6-2.9c-1.5-1.9-2.3-4.3-2.3-7.3
			c0-8.1,5.7-15.3,17.2-21.6c5-2.8,9.1-4.2,12.2-4.2c2.6,0,3.9,1.3,3.9,3.8c0,0.7-0.2,1.7-0.5,2.9l3.2-6.2c1.3,0.3,2.4,0.4,3.4,0.4
			c1.1,0,2.6-0.1,4.4-0.4l-11.2,18.6c-3.9,6.5-5.8,10.8-5.8,12.9c0,2,0.8,3,2.5,3c1.7,0,4.4-1.9,8.1-5.8c3.7-3.9,7.5-8.7,11.4-14.3
			c0.3-0.4,0.5-0.6,0.7-0.6C239.3,75.9,239.5,76,239.5,76.3z M222,65.8c0-2.1-1-3.1-2.9-3.1c-3.9,0-9,3.8-15.3,11.4
			c-6.3,7.6-9.5,13.8-9.5,18.5c0,2.8,1.2,4.1,3.7,4.1c2.9,0,8-4.8,15.2-14.5C219,74.2,222,68.7,222,65.8z"/>
	</g>
	<g>
		<path class="st1" d="M138.1,8.2c0,0.6-1.7,1.7-5.1,3.3c-3.5,1.6-7.4,2.9-11.6,4.1c-7.3,6.1-13.4,12.7-18.4,19.8
			c-5,7.2-10.6,17.3-16.7,30.4H88c7.2,0,13.2-2.6,18.1-7.9c2.4-2.6,4.1-6.1,5.1-10.4c0.2-0.7,0.4-1,0.8-1c0.4,0,0.6,0.2,0.6,0.6
			c0,4.7-2.6,9.2-7.8,13.4c-5.2,4.2-10.7,6.3-16.6,6.3c-0.9,0-1.6,0-2.2-0.1c-0.3,0.5-1.5,3.2-3.8,7.8C76.8,85.3,72.3,93,68.7,97.6
			c-3.6,4.7-8.3,8.8-14.1,12.4c-9.2,5.8-18.6,8.7-28.2,8.7c-5.5,0-10.1-1.2-13.6-3.7c-3.6-2.5-5.3-5.7-5.3-9.5
			c0-2.1,0.6-3.9,1.8-5.4c1.2-1.5,2.7-2.2,4.4-2.2c2.8,0,4.2,1.4,4.2,4.3c0,3.4-1.5,5.1-4.6,5.1c-2.2,0-3.4-1.4-3.5-4.1
			c0-0.2,0-0.3-0.1-0.4c-0.7,0-1.1,1-1.1,3c0,3.3,1.7,6.1,5,8.4c3.4,2.3,7.6,3.4,12.7,3.4c10.8,0,20.2-4.4,28.1-13.3
			c3.1-3.5,6.1-7.6,8.9-12.5c4.6-8.2,9.2-16.4,13.9-24.6l1-1.8c-4.3-1.3-7.7-3.6-10.2-7c-2.5-3.3-3.8-7.1-3.8-11.4
			c0-7.6,3.2-14,9.5-19.1c3.7-3,7.5-5.1,11.3-6.3c3.8-1.2,10.6-2.4,20.5-3.6c4.3-0.5,9.5-1.5,15.5-3c7.9-5,13.3-7.6,16.4-7.6
			C137.8,7.5,138.1,7.7,138.1,8.2z M119.7,16.1c-2.9,0.7-6.8,1.6-11.7,2.7c-8,1.8-14,3.5-18.2,5.3c-4.1,1.7-7.9,4.1-11.4,7
			c-7.3,6.2-10.9,12.8-10.9,19.6c0,6.7,3.7,11.3,11.2,13.8C91.4,41.5,105.1,25.3,119.7,16.1z"/>
		<path class="st1" d="M122.8,76.3c0,0.1-0.3,0.5-0.6,1l-2.7,3.8c-8,11.1-14,16.6-18.2,16.6c-2,0-3.7-0.7-5-2.1
			c-1.3-1.4-2-3.2-2-5.3c0-2.5,1.5-6.2,4.4-11.2l9.9-16.8c1.3,0.3,2.3,0.4,3.1,0.4c1.1,0,2.8-0.1,4.8-0.4L102,85.9
			c-2.1,3.4-3.1,6.1-3.1,7.9c0,1.9,1,2.9,3,2.9c3.8,0,10.4-6.7,19.9-20.2c0.2-0.4,0.4-0.6,0.6-0.6C122.7,75.9,122.8,76,122.8,76.3z
			 M121.9,50c0,1.5-0.6,2.9-1.9,4.2c-1.2,1.3-2.6,1.9-4.1,1.9c-1.9,0-2.9-1-2.9-2.9c0-1.4,0.7-2.7,2-4c1.3-1.3,2.7-1.9,4.1-1.9
			C121,47.3,121.9,48.2,121.9,50z"/>
		<path class="st1" d="M157,32.1l-28.5,45c4.4-6.1,7.8-10.2,10-12.3c2.2-2.1,4.3-3.1,6.3-3.1c2.4,0,4.3,1,5.8,2.9
			c1.5,1.9,2.3,4.3,2.3,7.3c0,6.4-4.1,12.7-12.2,18.9c-6.1,4.6-11.4,6.9-16.1,6.9c-2.2,0-4-0.8-5.4-2.5c-1.4-1.7-2.1-3.8-2.1-6.5
			c0-3.2,2-8,6.1-14.5l26.3-42.1c1.1,0.3,2.4,0.5,3.7,0.5C154.1,32.4,155.4,32.3,157,32.1z M148.2,66.9c0-2.8-1.2-4.3-3.6-4.3
			c-3.1,0-8.4,5.1-15.8,15.3c-5.6,7.6-8.4,12.7-8.4,15.4c0,2.2,1.1,3.4,3.3,3.4c3.8,0,8.8-3.8,15.1-11.4
			C145,77.7,148.2,71.6,148.2,66.9z"/>
		<path class="st1" d="M194.7,76.2c0,0.7-1.2,2.3-3.7,4.7c-3.7,3.7-7.2,5.6-10.3,5.6c-1.3,0-2.5-0.3-3.5-0.8
			c-5.6,7.9-10.8,11.9-15.8,11.9c-2.5,0-4.7-1-6.5-3.1c-1.8-2.1-2.7-4.6-2.7-7.5c0-6.5,4.3-12.8,12.8-18.9c6-4.3,11-6.4,14.9-6.4
			c3.6,0,5.5,1.9,5.5,5.8c0,4.9-2.6,10.7-7.7,17.6c0.8,0.5,1.8,0.8,2.9,0.8c1.9,0,4.1-0.9,6.7-2.7c2.5-1.8,4.6-3.9,6.2-6.4
			c0.5-0.6,0.8-0.9,1-0.9C194.6,76,194.7,76,194.7,76.2z M184.4,67.7c0-3.4-1.5-5.1-4.6-5.1c-3.9,0-8.5,3.7-14.1,11
			c-5.5,7.4-8.3,13.6-8.3,18.6c0,2.9,1.4,4.4,4.2,4.4c4.6,0,9.6-3.8,15-11.3c-1.2-1.4-1.8-2.8-1.8-4.2c0-2.1,0.8-4.2,2.5-6.4
			c1.7-2.2,3.3-3.3,4.8-3.3c0.7,0,1.1,0.4,1.4,1.3C184.1,71.1,184.4,69.5,184.4,67.7z"/>
		<path class="st1" d="M239.5,76.3c0,0.9-3.1,5-9.3,12.3c-5,6-8.9,9-11.8,9c-1.9,0-3.5-0.7-4.8-2.2c-1.2-1.5-1.8-3.3-1.8-5.5
			c0-2.3,0.7-4.8,2-7.4c-4.2,5.9-7.5,9.9-9.7,12c-2.2,2.1-4.4,3.1-6.5,3.1c-2.2,0-4.1-1-5.6-2.9c-1.5-1.9-2.3-4.3-2.3-7.3
			c0-8.1,5.7-15.3,17.2-21.6c5-2.8,9.1-4.2,12.2-4.2c2.6,0,3.9,1.3,3.9,3.8c0,0.7-0.2,1.7-0.5,2.9l3.2-6.2c1.3,0.3,2.4,0.4,3.4,0.4
			c1.1,0,2.6-0.1,4.4-0.4l-11.2,18.6c-3.9,6.5-5.8,10.8-5.8,12.9c0,2,0.8,3,2.5,3c1.7,0,4.4-1.9,8.1-5.8c3.7-3.9,7.5-8.7,11.4-14.3
			c0.3-0.4,0.5-0.6,0.7-0.6C239.3,75.9,239.5,76,239.5,76.3z M222,65.8c0-2.1-1-3.1-2.9-3.1c-3.9,0-9,3.8-15.3,11.4
			c-6.3,7.6-9.5,13.8-9.5,18.5c0,2.8,1.2,4.1,3.7,4.1c2.9,0,8-4.8,15.2-14.5C219,74.2,222,68.7,222,65.8z"/>
	</g>
	<g>
		<path class="st2" d="M138.1,8.2c0,0.6-1.7,1.7-5.1,3.3c-3.5,1.6-7.4,2.9-11.6,4.1c-7.3,6.1-13.4,12.7-18.4,19.8
			c-5,7.2-10.6,17.3-16.7,30.4H88c7.2,0,13.2-2.6,18.1-7.9c2.4-2.6,4.1-6.1,5.1-10.4c0.2-0.7,0.4-1,0.8-1c0.4,0,0.6,0.2,0.6,0.6
			c0,4.7-2.6,9.2-7.8,13.4c-5.2,4.2-10.7,6.3-16.6,6.3c-0.9,0-1.6,0-2.2-0.1c-0.3,0.5-1.5,3.2-3.8,7.8C76.8,85.3,72.3,93,68.7,97.6
			c-3.6,4.7-8.3,8.8-14.1,12.4c-9.2,5.8-18.6,8.7-28.2,8.7c-5.5,0-10.1-1.2-13.6-3.7c-3.6-2.5-5.3-5.7-5.3-9.5
			c0-2.1,0.6-3.9,1.8-5.4c1.2-1.5,2.7-2.2,4.4-2.2c2.8,0,4.2,1.4,4.2,4.3c0,3.4-1.5,5.1-4.6,5.1c-2.2,0-3.4-1.4-3.5-4.1
			c0-0.2,0-0.3-0.1-0.4c-0.7,0-1.1,1-1.1,3c0,3.3,1.7,6.1,5,8.4c3.4,2.3,7.6,3.4,12.7,3.4c10.8,0,20.2-4.4,28.1-13.3
			c3.1-3.5,6.1-7.6,8.9-12.5c4.6-8.2,9.2-16.4,13.9-24.6l1-1.8c-4.3-1.3-7.7-3.6-10.2-7c-2.5-3.3-3.8-7.1-3.8-11.4
			c0-7.6,3.2-14,9.5-19.1c3.7-3,7.5-5.1,11.3-6.3c3.8-1.2,10.6-2.4,20.5-3.6c4.3-0.5,9.5-1.5,15.5-3c7.9-5,13.3-7.6,16.4-7.6
			C137.8,7.5,138.1,7.7,138.1,8.2z M119.7,16.1c-2.9,0.7-6.8,1.6-11.7,2.7c-8,1.8-14,3.5-18.2,5.3c-4.1,1.7-7.9,4.1-11.4,7
			c-7.3,6.2-10.9,12.8-10.9,19.6c0,6.7,3.7,11.3,11.2,13.8C91.4,41.5,105.1,25.3,119.7,16.1z"/>
		<path class="st2" d="M122.8,76.3c0,0.1-0.3,0.5-0.6,1l-2.7,3.8c-8,11.1-14,16.6-18.2,16.6c-2,0-3.7-0.7-5-2.1
			c-1.3-1.4-2-3.2-2-5.3c0-2.5,1.5-6.2,4.4-11.2l9.9-16.8c1.3,0.3,2.3,0.4,3.1,0.4c1.1,0,2.8-0.1,4.8-0.4L102,85.9
			c-2.1,3.4-3.1,6.1-3.1,7.9c0,1.9,1,2.9,3,2.9c3.8,0,10.4-6.7,19.9-20.2c0.2-0.4,0.4-0.6,0.6-0.6C122.7,75.9,122.8,76,122.8,76.3z
			 M121.9,50c0,1.5-0.6,2.9-1.9,4.2c-1.2,1.3-2.6,1.9-4.1,1.9c-1.9,0-2.9-1-2.9-2.9c0-1.4,0.7-2.7,2-4c1.3-1.3,2.7-1.9,4.1-1.9
			C121,47.3,121.9,48.2,121.9,50z"/>
		<path class="st2" d="M157,32.1l-28.5,45c4.4-6.1,7.8-10.2,10-12.3c2.2-2.1,4.3-3.1,6.3-3.1c2.4,0,4.3,1,5.8,2.9
			c1.5,1.9,2.3,4.3,2.3,7.3c0,6.4-4.1,12.7-12.2,18.9c-6.1,4.6-11.4,6.9-16.1,6.9c-2.2,0-4-0.8-5.4-2.5c-1.4-1.7-2.1-3.8-2.1-6.5
			c0-3.2,2-8,6.1-14.5l26.3-42.1c1.1,0.3,2.4,0.5,3.7,0.5C154.1,32.4,155.4,32.3,157,32.1z M148.2,66.9c0-2.8-1.2-4.3-3.6-4.3
			c-3.1,0-8.4,5.1-15.8,15.3c-5.6,7.6-8.4,12.7-8.4,15.4c0,2.2,1.1,3.4,3.3,3.4c3.8,0,8.8-3.8,15.1-11.4
			C145,77.7,148.2,71.6,148.2,66.9z"/>
		<path class="st2" d="M194.7,76.2c0,0.7-1.2,2.3-3.7,4.7c-3.7,3.7-7.2,5.6-10.3,5.6c-1.3,0-2.5-0.3-3.5-0.8
			c-5.6,7.9-10.8,11.9-15.8,11.9c-2.5,0-4.7-1-6.5-3.1c-1.8-2.1-2.7-4.6-2.7-7.5c0-6.5,4.3-12.8,12.8-18.9c6-4.3,11-6.4,14.9-6.4
			c3.6,0,5.5,1.9,5.5,5.8c0,4.9-2.6,10.7-7.7,17.6c0.8,0.5,1.8,0.8,2.9,0.8c1.9,0,4.1-0.9,6.7-2.7c2.5-1.8,4.6-3.9,6.2-6.4
			c0.5-0.6,0.8-0.9,1-0.9C194.6,76,194.7,76,194.7,76.2z M184.4,67.7c0-3.4-1.5-5.1-4.6-5.1c-3.9,0-8.5,3.7-14.1,11
			c-5.5,7.4-8.3,13.6-8.3,18.6c0,2.9,1.4,4.4,4.2,4.4c4.6,0,9.6-3.8,15-11.3c-1.2-1.4-1.8-2.8-1.8-4.2c0-2.1,0.8-4.2,2.5-6.4
			c1.7-2.2,3.3-3.3,4.8-3.3c0.7,0,1.1,0.4,1.4,1.3C184.1,71.1,184.4,69.5,184.4,67.7z"/>
		<path class="st2" d="M239.5,76.3c0,0.9-3.1,5-9.3,12.3c-5,6-8.9,9-11.8,9c-1.9,0-3.5-0.7-4.8-2.2c-1.2-1.5-1.8-3.3-1.8-5.5
			c0-2.3,0.7-4.8,2-7.4c-4.2,5.9-7.5,9.9-9.7,12c-2.2,2.1-4.4,3.1-6.5,3.1c-2.2,0-4.1-1-5.6-2.9c-1.5-1.9-2.3-4.3-2.3-7.3
			c0-8.1,5.7-15.3,17.2-21.6c5-2.8,9.1-4.2,12.2-4.2c2.6,0,3.9,1.3,3.9,3.8c0,0.7-0.2,1.7-0.5,2.9l3.2-6.2c1.3,0.3,2.4,0.4,3.4,0.4
			c1.1,0,2.6-0.1,4.4-0.4l-11.2,18.6c-3.9,6.5-5.8,10.8-5.8,12.9c0,2,0.8,3,2.5,3c1.7,0,4.4-1.9,8.1-5.8c3.7-3.9,7.5-8.7,11.4-14.3
			c0.3-0.4,0.5-0.6,0.7-0.6C239.3,75.9,239.5,76,239.5,76.3z M222,65.8c0-2.1-1-3.1-2.9-3.1c-3.9,0-9,3.8-15.3,11.4
			c-6.3,7.6-9.5,13.8-9.5,18.5c0,2.8,1.2,4.1,3.7,4.1c2.9,0,8-4.8,15.2-14.5C219,74.2,222,68.7,222,65.8z"/>
	</g>
</g>
<path class="st3" d="M336.7,57.3c-0.1,0-0.2-0.1-0.2-0.2c-0.5-0.4-1-0.7-1.5-0.9c-0.1,0-0.1-0.1-0.2-0.1c-1.4-0.7-3-1.1-4.7-1.1
	h-13.5c-2-2.7-4.6-5.2-7.4-7.1c-0.1,0-0.2-0.1-0.3-0.2c-4.8-3.3-10.6-5.2-16.7-5.3c-9.8,0-18.9,5.2-24.5,12.6h-17
	c-5.5,0-9.9,4.1-9.9,9.2v19.6c0,5.1,4.4,9.2,9.9,9.2H266c2.4,3.9,5.6,7.4,9.5,10c0.1,0,0.2,0.1,0.2,0.2c0.1,0.1,0.3,0.2,0.5,0.3
	c0,0,0.1,0.1,0.1,0.1c2.5,1.6,5.1,2.8,8,3.7c0.1,0,0.1,0,0.1,0c0.3,0.1,0.6,0.2,0.9,0.2c0.1,0,0.1,0,0.2,0c0.7,0.2,1.4,0.3,2.2,0.4
	c0.1,0,0.2,0,0.3,0.1c1.3,0.2,2.6,0.3,4,0.3c11.1,0.1,21.3-6.5,26.6-15.3h11.7c5.5,0,9.9-4.1,9.9-9.2V64.2
	C340.1,61.4,338.8,59,336.7,57.3z"/>
<path class="st4" d="M334.1,58.7c-0.1,0-0.1-0.1-0.2-0.2c-0.4-0.3-0.9-0.6-1.4-0.9c-0.1,0-0.1-0.1-0.2-0.1c-1.3-0.6-2.8-1-4.4-1
	h-12.8c-1.9-2.5-4.3-4.7-7-6.5c-0.1,0-0.2-0.1-0.3-0.2c-4.6-3-10.1-4.8-15.8-4.8c-9.3,0-17.9,4.8-23.1,11.5h-16.1
	c-5.2,0-9.4,3.8-9.4,8.4v17.9c0,4.6,4.2,8.4,9.4,8.4h14.3c2.2,3.6,5.3,6.7,9,9.2c0.1,0,0.2,0.1,0.2,0.1c0.1,0.1,0.3,0.2,0.4,0.3
	c0,0,0.1,0,0.1,0.1c2.3,1.4,4.9,2.6,7.6,3.3c0,0,0.1,0,0.1,0c0.3,0.1,0.5,0.1,0.8,0.2c0.1,0,0.1,0,0.1,0c0.7,0.2,1.4,0.3,2,0.4
	c0.1,0,0.2,0,0.3,0c1.2,0.2,2.5,0.3,3.8,0.3c10.5,0.1,20.1-5.9,25.2-14H328c5.2,0,9.4-3.8,9.4-8.4V65
	C337.4,62.5,336.1,60.2,334.1,58.7z"/>
<path class="st5" d="M332.8,59.7c-0.1,0-0.1-0.1-0.2-0.1c-0.4-0.3-0.9-0.6-1.4-0.8c-0.1,0-0.1,0-0.2-0.1c-1.3-0.6-2.7-0.9-4.3-0.9
	h-12.4c-1.9-2.3-4.2-4.4-6.8-6.1c-0.1,0-0.2-0.1-0.2-0.2c-4.4-2.8-9.8-4.5-15.3-4.5c-9,0-17.4,4.5-22.4,10.8H254
	c-5,0-9.1,3.5-9.1,7.9v16.8c0,4.4,4.1,7.9,9.1,7.9h13.9c2.2,3.3,5.2,6.3,8.7,8.6c0.1,0,0.1,0.1,0.2,0.1c0.1,0.1,0.3,0.2,0.4,0.2
	c0,0,0.1,0,0.1,0.1c2.3,1.4,4.7,2.4,7.3,3.1c0,0,0.1,0,0.1,0c0.3,0.1,0.5,0.1,0.8,0.2c0.1,0,0.1,0,0.1,0c0.7,0.1,1.3,0.3,2,0.4
	c0.1,0,0.2,0,0.3,0c1.2,0.2,2.4,0.3,3.7,0.3c10.2,0.1,19.5-5.6,24.4-13.2h10.7c5,0,9.1-3.5,9.1-7.9V65.6
	C335.9,63.3,334.7,61.1,332.8,59.7z"/>
<g>
	<g>
		<path class="st6" d="M304.4,50.2c-0.9-0.5-1.8-1.2-2.8-1.4c-0.8-0.2-1.6-0.3-2.3-0.5l7.3,19.9c1.2-0.6,2.5-1,3.9-1.2l-1.9-14.5
			C307.3,51.4,305.8,50.9,304.4,50.2z"/>
		<path class="st6" d="M335.8,74.5c0-2.1,0-4.1,0.1-6.2l-18,4.5c0.3,0.9,0.4,1.8,0.4,2.7h17.6c0,0,0-0.1,0-0.1
			C335.9,75.1,335.8,74.8,335.8,74.5z"/>
		<path class="st6" d="M318.9,57.5l-4.5,11.6c0.9,0.4,1.8,0.9,2.6,1.5l8.9-12.6c-1,0-1.9-0.2-2.8-0.3
			C321.6,57.7,320.1,57.6,318.9,57.5z"/>
		<path class="st6" d="M278.4,51.2c-0.2,0.1-0.4,0.1-0.6,0.2c-1.1,0.5-2.1,0.9-3.2,1.5c-0.7,0.5-1.4,1-2,1.7L303,73.5
			c1-0.4,2.3-0.7,3.8-0.7L278.4,51.2z"/>
		<linearGradient id="SVGID_1_" gradientUnits="userSpaceOnUse" x1="310.4041" y1="83.521" x2="310.4041" y2="65.9321">
			<stop  offset="0" style="stop-color:#F6E23F"/>
			<stop  offset="0.2384" style="stop-color:#F5DE3E"/>
			<stop  offset="0.561" style="stop-color:#F1D33A"/>
			<stop  offset="0.9304" style="stop-color:#EABF35"/>
			<stop  offset="1" style="stop-color:#E8BA33"/>
		</linearGradient>
		<path class="st7" d="M320.1,74.7c0,0.8-0.1,1.5-0.3,2.3c-0.2,0.7-0.5,1.5-1,2.1c-0.4,0.7-0.9,1.3-1.5,1.8c-0.6,0.5-1.3,1-2,1.4
			c-0.7,0.4-1.5,0.7-2.3,0.9c-0.8,0.2-1.6,0.3-2.5,0.3c-0.9,0-1.7-0.1-2.5-0.3c-0.8-0.2-1.6-0.5-2.3-0.9c-0.7-0.4-1.4-0.9-2-1.4
			c-0.6-0.5-1.1-1.2-1.5-1.8c-0.4-0.7-0.8-1.4-1-2.1c-0.2-0.7-0.3-1.5-0.3-2.3c0-0.8,0.1-1.5,0.3-2.3c0.2-0.8,0.5-1.5,1-2.1
			c0.4-0.7,0.9-1.3,1.5-1.8c0.6-0.5,1.3-1,2-1.4c0.7-0.4,1.5-0.7,2.3-0.9c0.8-0.2,1.6-0.3,2.5-0.3c0.9,0,1.7,0.1,2.5,0.3
			c0.8,0.2,1.6,0.5,2.3,0.9c0.7,0.4,1.4,0.9,2,1.4c0.6,0.5,1.1,1.2,1.5,1.8c0.4,0.7,0.8,1.4,1,2.1C320,73.2,320.1,73.9,320.1,74.7z"
			/>
	</g>
</g>
<path class="st8" d="M332.8,59.7c-0.1,0-0.1-0.1-0.2-0.1c-0.4-0.3-0.9-0.6-1.4-0.8c-0.1,0-0.1,0-0.2-0.1c-1.3-0.6-2.7-0.9-4.3-0.9
	h-12.4c-1.9-2.3-4.2-4.4-6.8-6.1c-0.1,0-0.2-0.1-0.2-0.2c-4.4-2.8-9.8-4.5-15.3-4.5c-9,0-17.4,4.5-22.4,10.8H254
	c-5,0-9.1,3.5-9.1,7.9v16.8c0,4.4,4.1,7.9,9.1,7.9h13.9c2.2,3.3,5.2,6.3,8.7,8.6c0.1,0,0.1,0.1,0.2,0.1c0.1,0.1,0.3,0.2,0.4,0.2
	c0,0,0.1,0,0.1,0.1c2.3,1.4,4.7,2.4,7.3,3.1c0,0,0.1,0,0.1,0c0.3,0.1,0.5,0.1,0.8,0.2c0.1,0,0.1,0,0.1,0c0.7,0.1,1.3,0.3,2,0.4
	c0.1,0,0.2,0,0.3,0c1.2,0.2,2.4,0.3,3.7,0.3c10.2,0.1,19.5-5.6,24.4-13.2h10.7c5,0,9.1-3.5,9.1-7.9V65.6
	C335.9,63.3,334.7,61.1,332.8,59.7z"/>
<linearGradient id="SVGID_2_" gradientUnits="userSpaceOnUse" x1="264.709" y1="105.4295" x2="316.2383" y2="53.9003">
	<stop  offset="0" style="stop-color:#FEF050"/>
	<stop  offset="5.948725e-02" style="stop-color:#F9E43E"/>
	<stop  offset="0.1303" style="stop-color:#F3D727"/>
	<stop  offset="0.2032" style="stop-color:#F0CE0C"/>
	<stop  offset="0.2809" style="stop-color:#EFCB00"/>
	<stop  offset="0.4764" style="stop-color:#D99544"/>
	<stop  offset="0.8236" style="stop-color:#CD6F3C"/>
	<stop  offset="1" style="stop-color:#C34435"/>
</linearGradient>
<path class="st9" d="M335.7,73.6c-2.2,0.3-4.2-0.3-6.4-0.7c-1.7-0.3-2.9,0-4.4,0.8c-1.8,0.9-3.6,1.8-5.6,2.1
	c-3.1,0.5-6.4-0.2-9.4-1.2c-0.2-0.1-0.4-0.1-0.6-0.2c-0.5,0.2-1,0.3-1.6,0.3c-5.9-0.1-11.9,0.2-17.8,0.2c-0.7,0-1.3-0.1-1.8-0.4
	c-1.8,0.5-3.6,0.9-5.5,0.8c-1.7-0.1-3.3-0.4-4.9-1c-1-0.4-2-0.8-3.1-1.1c-0.6,1-1.6,1.7-3.1,1.7c-1.2,0-2.1-0.4-2.7-1.1
	c-2,0.7-3.9,1.8-6,2.1c-1.7,0.3-3.4,0.4-5.1,0.1c-1.4-0.3-2.8-0.8-4.2-1.2c-2.8-0.8-5.6-0.7-8.4-1.1v9c0,4.3,4.1,7.8,9.1,7.8h13.9
	c2.2,3.3,5.2,6.3,8.7,8.5c0.1,0,0.2,0.1,0.2,0.1c0.1,0.1,0.3,0.2,0.4,0.2c0,0,0.1,0,0.1,0.1c2.3,1.3,4.7,2.4,7.3,3.1
	c0,0,0.1,0,0.1,0c0.3,0.1,0.5,0.1,0.8,0.2c0.1,0,0.1,0,0.1,0c0.7,0.1,1.3,0.3,2,0.4c0.1,0,0.2,0,0.3,0c1.2,0.2,2.4,0.3,3.7,0.3
	c10.2,0.1,19.5-5.5,24.4-13h10.7c5,0,9.1-3.5,9.1-7.8v-9.2C335.9,73.6,335.8,73.6,335.7,73.6z"/>
<g>
	<g>
		<path class="st0" d="M374.8,78.1l7.4,1.1c-1.4,4-3.6,7.1-6.5,9.2c-2.9,2.1-6.3,3.2-10.2,3.2c-4.4,0-7.8-1.3-10.3-4
			c-2.5-2.6-3.7-6.5-3.7-11.5c0-4.1,0.8-7.8,2.5-11.2c1.7-3.4,3.9-6,6.9-7.8c2.9-1.8,6.1-2.7,9.6-2.7c3.9,0,7,1,9.4,3.1
			c2.4,2.1,3.8,4.9,4.2,8.5l-7.1,0.7c-0.4-2.1-1.1-3.6-2.3-4.5c-1.1-0.9-2.6-1.4-4.5-1.4c-2,0-3.9,0.6-5.7,1.9
			c-1.8,1.2-3.2,3.2-4.2,5.8c-1.1,2.6-1.6,5.3-1.6,7.9c0,2.9,0.7,5.1,2.1,6.6c1.4,1.6,3.1,2.3,5.1,2.3c1.9,0,3.7-0.6,5.2-1.9
			C372.8,82.4,374,80.5,374.8,78.1z"/>
		<path class="st0" d="M385.9,80.2c0-4.8,1.4-8.6,4.1-11.5c2.7-2.9,6.3-4.3,10.7-4.3c3.8,0,6.8,1.1,9,3.2c2.1,2.1,3.2,4.9,3.2,8.5
			c0,4.2-1.3,7.8-4,10.9c-2.7,3.1-6.3,4.6-10.8,4.6c-2.4,0-4.6-0.5-6.5-1.5c-1.9-1-3.3-2.4-4.2-4.2
			C386.4,84.2,385.9,82.3,385.9,80.2z M405.9,75.2c0-1.7-0.5-3-1.5-4c-1-1-2.2-1.5-3.7-1.5c-1.5,0-2.9,0.5-4,1.4
			c-1.2,0.9-2.1,2.3-2.7,4.1c-0.7,1.8-1,3.4-1,4.9c0,1.9,0.5,3.3,1.5,4.4c1,1.1,2.3,1.6,3.8,1.6c1.9,0,3.5-0.8,4.8-2.5
			C405,81.4,405.9,78.6,405.9,75.2z"/>
		<path class="st0" d="M420.8,65.1h7l-3.2,15.4c-0.4,1.8-0.6,3-0.6,3.4c0,0.7,0.3,1.4,0.8,1.9c0.6,0.5,1.3,0.8,2.1,0.8
			c0.6,0,1.2-0.1,1.8-0.4c0.6-0.2,1.2-0.6,1.9-1.1c0.6-0.5,1.2-1,1.7-1.6c0.5-0.6,1-1.4,1.4-2.4c0.3-0.7,0.6-2,1-3.7l2.6-12.4h7
			L439,91h-6.5l0.7-3.5c-2.9,2.8-6,4.1-9.4,4.1c-2.1,0-3.8-0.6-5-1.8c-1.2-1.2-1.8-2.9-1.8-4.9c0-0.9,0.3-2.7,0.8-5.3L420.8,65.1z"
			/>
		<path class="st0" d="M451.5,65.1h6.6l-0.7,3.4c1.7-1.4,3.2-2.5,4.7-3.1c1.4-0.6,3-0.9,4.6-0.9c2.1,0,3.8,0.6,5,1.8
			c1.2,1.2,1.8,2.8,1.8,4.9c0,0.9-0.3,2.6-0.8,5.2L469.7,91h-7l3.1-14.7c0.5-2.2,0.7-3.5,0.7-3.9c0-0.9-0.3-1.6-0.8-2.1
			c-0.5-0.5-1.3-0.8-2.2-0.8c-1,0-2.2,0.4-3.4,1.3c-1.3,0.9-2.2,2-3,3.4c-0.5,1-1.1,3.1-1.8,6.2L453.1,91h-7L451.5,65.1z"/>
		<path class="st0" d="M478.3,70.3l1.1-5.2h3.4l0.9-4.2l8-4.8l-1.9,9h4.3l-1.1,5.2h-4.3l-2.3,10.9c-0.4,2-0.6,3.1-0.6,3.4
			c0,0.5,0.2,1,0.5,1.3c0.3,0.3,1,0.5,1.9,0.5c0.3,0,1.1-0.1,2.3-0.2l-1.1,5.2c-1.2,0.2-2.4,0.4-3.7,0.4c-2.5,0-4.3-0.5-5.4-1.4
			c-1.1-1-1.7-2.3-1.7-4c0-0.8,0.3-2.6,0.9-5.5l2.2-10.4H478.3z"/>
		<path class="st0" d="M498.2,65.1h6.5l-1,5c2.4-3.8,5.1-5.6,7.9-5.6c1,0,2.1,0.3,3.2,0.8l-2.7,5.7c-0.6-0.2-1.3-0.3-2-0.3
			c-1.2,0-2.4,0.5-3.7,1.4c-1.2,0.9-2.2,2.1-2.9,3.6c-0.7,1.5-1.4,3.9-2.1,7.2l-1.7,8.1h-7L498.2,65.1z"/>
		<path class="st0" d="M514.8,65.1h7l1.8,12.9c0.4,3.3,0.7,5.6,0.7,7c0.9-2.7,2.2-5.5,3.8-8.4l6.2-11.5h7.4l-16,28.5
			c-1.3,2.4-2.4,4-3.1,5c-0.8,0.9-1.7,1.7-2.7,2.2c-1.1,0.5-2.3,0.8-3.8,0.8c-1.5,0-3.1-0.3-5-0.8l0.6-5.2c0.8,0.2,1.7,0.4,2.5,0.4
			c2.1,0,3.9-1.6,5.3-4.9L514.8,65.1z"/>
	</g>
	<g>
		<linearGradient id="SVGID_3_" gradientUnits="userSpaceOnUse" x1="372.0474" y1="118.4428" x2="523.217" y2="31.165">
			<stop  offset="0" style="stop-color:#D8D9DD"/>
			<stop  offset="1" style="stop-color:#009BDB"/>
		</linearGradient>
		<path class="st10" d="M374.8,78.1l7.4,1.1c-1.4,4-3.6,7.1-6.5,9.2c-2.9,2.1-6.3,3.2-10.2,3.2c-4.4,0-7.8-1.3-10.3-4
			c-2.5-2.6-3.7-6.5-3.7-11.5c0-4.1,0.8-7.8,2.5-11.2c1.7-3.4,3.9-6,6.9-7.8c2.9-1.8,6.1-2.7,9.6-2.7c3.9,0,7,1,9.4,3.1
			c2.4,2.1,3.8,4.9,4.2,8.5l-7.1,0.7c-0.4-2.1-1.1-3.6-2.3-4.5c-1.1-0.9-2.6-1.4-4.5-1.4c-2,0-3.9,0.6-5.7,1.9
			c-1.8,1.2-3.2,3.2-4.2,5.8c-1.1,2.6-1.6,5.3-1.6,7.9c0,2.9,0.7,5.1,2.1,6.6c1.4,1.6,3.1,2.3,5.1,2.3c1.9,0,3.7-0.6,5.2-1.9
			C372.8,82.4,374,80.5,374.8,78.1z"/>
		<linearGradient id="SVGID_4_" gradientUnits="userSpaceOnUse" x1="372.0474" y1="118.4428" x2="523.217" y2="31.165">
			<stop  offset="0" style="stop-color:#D8D9DD"/>
			<stop  offset="1" style="stop-color:#009BDB"/>
		</linearGradient>
		<path class="st11" d="M385.9,80.2c0-4.8,1.4-8.6,4.1-11.5c2.7-2.9,6.3-4.3,10.7-4.3c3.8,0,6.8,1.1,9,3.2c2.1,2.1,3.2,4.9,3.2,8.5
			c0,4.2-1.3,7.8-4,10.9c-2.7,3.1-6.3,4.6-10.8,4.6c-2.4,0-4.6-0.5-6.5-1.5c-1.9-1-3.3-2.4-4.2-4.2
			C386.4,84.2,385.9,82.3,385.9,80.2z M405.9,75.2c0-1.7-0.5-3-1.5-4c-1-1-2.2-1.5-3.7-1.5c-1.5,0-2.9,0.5-4,1.4
			c-1.2,0.9-2.1,2.3-2.7,4.1c-0.7,1.8-1,3.4-1,4.9c0,1.9,0.5,3.3,1.5,4.4c1,1.1,2.3,1.6,3.8,1.6c1.9,0,3.5-0.8,4.8-2.5
			C405,81.4,405.9,78.6,405.9,75.2z"/>
		<linearGradient id="SVGID_5_" gradientUnits="userSpaceOnUse" x1="372.0474" y1="118.4428" x2="523.217" y2="31.165">
			<stop  offset="0" style="stop-color:#D8D9DD"/>
			<stop  offset="1" style="stop-color:#009BDB"/>
		</linearGradient>
		<path class="st12" d="M420.8,65.1h7l-3.2,15.4c-0.4,1.8-0.6,3-0.6,3.4c0,0.7,0.3,1.4,0.8,1.9c0.6,0.5,1.3,0.8,2.1,0.8
			c0.6,0,1.2-0.1,1.8-0.4c0.6-0.2,1.2-0.6,1.9-1.1c0.6-0.5,1.2-1,1.7-1.6c0.5-0.6,1-1.4,1.4-2.4c0.3-0.7,0.6-2,1-3.7l2.6-12.4h7
			L439,91h-6.5l0.7-3.5c-2.9,2.8-6,4.1-9.4,4.1c-2.1,0-3.8-0.6-5-1.8c-1.2-1.2-1.8-2.9-1.8-4.9c0-0.9,0.3-2.7,0.8-5.3L420.8,65.1z"
			/>
		<linearGradient id="SVGID_6_" gradientUnits="userSpaceOnUse" x1="372.0474" y1="118.4428" x2="523.217" y2="31.165">
			<stop  offset="0" style="stop-color:#D8D9DD"/>
			<stop  offset="1" style="stop-color:#009BDB"/>
		</linearGradient>
		<path class="st13" d="M451.5,65.1h6.6l-0.7,3.4c1.7-1.4,3.2-2.5,4.7-3.1c1.4-0.6,3-0.9,4.6-0.9c2.1,0,3.8,0.6,5,1.8
			c1.2,1.2,1.8,2.8,1.8,4.9c0,0.9-0.3,2.6-0.8,5.2L469.7,91h-7l3.1-14.7c0.5-2.2,0.7-3.5,0.7-3.9c0-0.9-0.3-1.6-0.8-2.1
			c-0.5-0.5-1.3-0.8-2.2-0.8c-1,0-2.2,0.4-3.4,1.3c-1.3,0.9-2.2,2-3,3.4c-0.5,1-1.1,3.1-1.8,6.2L453.1,91h-7L451.5,65.1z"/>
		<linearGradient id="SVGID_7_" gradientUnits="userSpaceOnUse" x1="372.0474" y1="118.4428" x2="523.217" y2="31.165">
			<stop  offset="0" style="stop-color:#D8D9DD"/>
			<stop  offset="1" style="stop-color:#009BDB"/>
		</linearGradient>
		<path class="st14" d="M478.3,70.3l1.1-5.2h3.4l0.9-4.2l8-4.8l-1.9,9h4.3l-1.1,5.2h-4.3l-2.3,10.9c-0.4,2-0.6,3.1-0.6,3.4
			c0,0.5,0.2,1,0.5,1.3c0.3,0.3,1,0.5,1.9,0.5c0.3,0,1.1-0.1,2.3-0.2l-1.1,5.2c-1.2,0.2-2.4,0.4-3.7,0.4c-2.5,0-4.3-0.5-5.4-1.4
			c-1.1-1-1.7-2.3-1.7-4c0-0.8,0.3-2.6,0.9-5.5l2.2-10.4H478.3z"/>
		<linearGradient id="SVGID_8_" gradientUnits="userSpaceOnUse" x1="372.0474" y1="118.4428" x2="523.217" y2="31.165">
			<stop  offset="0" style="stop-color:#D8D9DD"/>
			<stop  offset="1" style="stop-color:#009BDB"/>
		</linearGradient>
		<path class="st15" d="M498.2,65.1h6.5l-1,5c2.4-3.8,5.1-5.6,7.9-5.6c1,0,2.1,0.3,3.2,0.8l-2.7,5.7c-0.6-0.2-1.3-0.3-2-0.3
			c-1.2,0-2.4,0.5-3.7,1.4c-1.2,0.9-2.2,2.1-2.9,3.6c-0.7,1.5-1.4,3.9-2.1,7.2l-1.7,8.1h-7L498.2,65.1z"/>
		<linearGradient id="SVGID_9_" gradientUnits="userSpaceOnUse" x1="372.0474" y1="118.4428" x2="523.217" y2="31.165">
			<stop  offset="0" style="stop-color:#D8D9DD"/>
			<stop  offset="1" style="stop-color:#009BDB"/>
		</linearGradient>
		<path class="st16" d="M514.8,65.1h7l1.8,12.9c0.4,3.3,0.7,5.6,0.7,7c0.9-2.7,2.2-5.5,3.8-8.4l6.2-11.5h7.4l-16,28.5
			c-1.3,2.4-2.4,4-3.1,5c-0.8,0.9-1.7,1.7-2.7,2.2c-1.1,0.5-2.3,0.8-3.8,0.8c-1.5,0-3.1-0.3-5-0.8l0.6-5.2c0.8,0.2,1.7,0.4,2.5,0.4
			c2.1,0,3.9-1.6,5.3-4.9L514.8,65.1z"/>
	</g>
	<g>
		<path class="st17" d="M374.8,78.1l7.4,1.1c-1.4,4-3.6,7.1-6.5,9.2c-2.9,2.1-6.3,3.2-10.2,3.2c-4.4,0-7.8-1.3-10.3-4
			c-2.5-2.6-3.7-6.5-3.7-11.5c0-4.1,0.8-7.8,2.5-11.2c1.7-3.4,3.9-6,6.9-7.8c2.9-1.8,6.1-2.7,9.6-2.7c3.9,0,7,1,9.4,3.1
			c2.4,2.1,3.8,4.9,4.2,8.5l-7.1,0.7c-0.4-2.1-1.1-3.6-2.3-4.5c-1.1-0.9-2.6-1.4-4.5-1.4c-2,0-3.9,0.6-5.7,1.9
			c-1.8,1.2-3.2,3.2-4.2,5.8c-1.1,2.6-1.6,5.3-1.6,7.9c0,2.9,0.7,5.1,2.1,6.6c1.4,1.6,3.1,2.3,5.1,2.3c1.9,0,3.7-0.6,5.2-1.9
			C372.8,82.4,374,80.5,374.8,78.1z"/>
		<path class="st17" d="M385.9,80.2c0-4.8,1.4-8.6,4.1-11.5c2.7-2.9,6.3-4.3,10.7-4.3c3.8,0,6.8,1.1,9,3.2c2.1,2.1,3.2,4.9,3.2,8.5
			c0,4.2-1.3,7.8-4,10.9c-2.7,3.1-6.3,4.6-10.8,4.6c-2.4,0-4.6-0.5-6.5-1.5c-1.9-1-3.3-2.4-4.2-4.2
			C386.4,84.2,385.9,82.3,385.9,80.2z M405.9,75.2c0-1.7-0.5-3-1.5-4c-1-1-2.2-1.5-3.7-1.5c-1.5,0-2.9,0.5-4,1.4
			c-1.2,0.9-2.1,2.3-2.7,4.1c-0.7,1.8-1,3.4-1,4.9c0,1.9,0.5,3.3,1.5,4.4c1,1.1,2.3,1.6,3.8,1.6c1.9,0,3.5-0.8,4.8-2.5
			C405,81.4,405.9,78.6,405.9,75.2z"/>
		<path class="st17" d="M420.8,65.1h7l-3.2,15.4c-0.4,1.8-0.6,3-0.6,3.4c0,0.7,0.3,1.4,0.8,1.9c0.6,0.5,1.3,0.8,2.1,0.8
			c0.6,0,1.2-0.1,1.8-0.4c0.6-0.2,1.2-0.6,1.9-1.1c0.6-0.5,1.2-1,1.7-1.6c0.5-0.6,1-1.4,1.4-2.4c0.3-0.7,0.6-2,1-3.7l2.6-12.4h7
			L439,91h-6.5l0.7-3.5c-2.9,2.8-6,4.1-9.4,4.1c-2.1,0-3.8-0.6-5-1.8c-1.2-1.2-1.8-2.9-1.8-4.9c0-0.9,0.3-2.7,0.8-5.3L420.8,65.1z"
			/>
		<path class="st17" d="M451.5,65.1h6.6l-0.7,3.4c1.7-1.4,3.2-2.5,4.7-3.1c1.4-0.6,3-0.9,4.6-0.9c2.1,0,3.8,0.6,5,1.8
			c1.2,1.2,1.8,2.8,1.8,4.9c0,0.9-0.3,2.6-0.8,5.2L469.7,91h-7l3.1-14.7c0.5-2.2,0.7-3.5,0.7-3.9c0-0.9-0.3-1.6-0.8-2.1
			c-0.5-0.5-1.3-0.8-2.2-0.8c-1,0-2.2,0.4-3.4,1.3c-1.3,0.9-2.2,2-3,3.4c-0.5,1-1.1,3.1-1.8,6.2L453.1,91h-7L451.5,65.1z"/>
		<path class="st17" d="M478.3,70.3l1.1-5.2h3.4l0.9-4.2l8-4.8l-1.9,9h4.3l-1.1,5.2h-4.3l-2.3,10.9c-0.4,2-0.6,3.1-0.6,3.4
			c0,0.5,0.2,1,0.5,1.3c0.3,0.3,1,0.5,1.9,0.5c0.3,0,1.1-0.1,2.3-0.2l-1.1,5.2c-1.2,0.2-2.4,0.4-3.7,0.4c-2.5,0-4.3-0.5-5.4-1.4
			c-1.1-1-1.7-2.3-1.7-4c0-0.8,0.3-2.6,0.9-5.5l2.2-10.4H478.3z"/>
		<path class="st17" d="M498.2,65.1h6.5l-1,5c2.4-3.8,5.1-5.6,7.9-5.6c1,0,2.1,0.3,3.2,0.8l-2.7,5.7c-0.6-0.2-1.3-0.3-2-0.3
			c-1.2,0-2.4,0.5-3.7,1.4c-1.2,0.9-2.2,2.1-2.9,3.6c-0.7,1.5-1.4,3.9-2.1,7.2l-1.7,8.1h-7L498.2,65.1z"/>
		<path class="st17" d="M514.8,65.1h7l1.8,12.9c0.4,3.3,0.7,5.6,0.7,7c0.9-2.7,2.2-5.5,3.8-8.4l6.2-11.5h7.4l-16,28.5
			c-1.3,2.4-2.4,4-3.1,5c-0.8,0.9-1.7,1.7-2.7,2.2c-1.1,0.5-2.3,0.8-3.8,0.8c-1.5,0-3.1-0.3-5-0.8l0.6-5.2c0.8,0.2,1.7,0.4,2.5,0.4
			c2.1,0,3.9-1.6,5.3-4.9L514.8,65.1z"/>
	</g>
</g>
<g>
	<g>
		<path class="st0" d="M579.1,83.2l7.4,1.1c-1.4,4-3.6,7.1-6.5,9.2c-2.9,2.1-6.3,3.2-10.2,3.2c-4.4,0-7.8-1.3-10.3-4
			c-2.5-2.6-3.7-6.5-3.7-11.5c0-4.1,0.8-7.8,2.5-11.2c1.7-3.4,3.9-6,6.9-7.8c2.9-1.8,6.1-2.7,9.6-2.7c3.9,0,7,1,9.4,3.1
			c2.4,2.1,3.8,4.9,4.2,8.5l-7.1,0.7c-0.4-2.1-1.1-3.6-2.3-4.5c-1.1-0.9-2.6-1.4-4.5-1.4c-2,0-3.9,0.6-5.7,1.9
			c-1.8,1.2-3.2,3.2-4.2,5.8c-1.1,2.6-1.6,5.3-1.6,7.9c0,2.9,0.7,5.1,2.1,6.6c1.4,1.6,3.1,2.3,5.1,2.3c1.9,0,3.7-0.6,5.2-1.9
			C577.2,87.4,578.4,85.6,579.1,83.2z"/>
		<path class="st0" d="M589.2,96.1l7.5-35.8h7l-7.5,35.8H589.2z"/>
		<path class="st0" d="M608.5,70.1h7l-3.2,15.4c-0.4,1.8-0.6,3-0.6,3.4c0,0.7,0.3,1.4,0.8,1.9c0.6,0.5,1.3,0.8,2.1,0.8
			c0.6,0,1.2-0.1,1.8-0.4c0.6-0.2,1.2-0.6,1.9-1.1c0.6-0.5,1.2-1,1.7-1.6c0.5-0.6,1-1.4,1.4-2.4c0.3-0.7,0.6-2,1-3.7l2.6-12.4h7
			l-5.4,25.9h-6.5l0.7-3.5c-2.9,2.8-6,4.1-9.4,4.1c-2.1,0-3.8-0.6-5-1.8c-1.2-1.2-1.8-2.9-1.8-4.9c0-0.9,0.3-2.7,0.8-5.3L608.5,70.1
			z"/>
		<path class="st0" d="M633.5,96.1l7.5-35.8h7l-2.5,12c1.3-1,2.5-1.7,3.6-2.1c1.1-0.4,2.3-0.6,3.6-0.6c2.7,0,4.9,0.9,6.6,2.7
			c1.6,1.8,2.5,4.5,2.5,8c0,2.4-0.4,4.7-1.2,6.9c-0.8,2.2-1.8,4-3.1,5.4c-1.3,1.4-2.7,2.4-4.1,3.1c-1.4,0.7-2.9,1-4.5,1
			c-3.7,0-6.4-1.6-8.2-4.9l-0.9,4.3H633.5z M643,85.5c0,1.7,0.5,3.2,1.5,4.2c1,1.1,2.1,1.6,3.5,1.6c1.2,0,2.3-0.4,3.4-1.3
			c1.1-0.8,2-2.2,2.7-4.1c0.7-1.9,1.1-3.7,1.1-5.6c0-1.8-0.5-3.3-1.4-4.3c-1-1.1-2.1-1.6-3.5-1.6c-1.8,0-3.3,0.8-4.5,2.4
			C643.8,79.2,643,82,643,85.5z"/>
	</g>
	<g>
		<path class="st18" d="M579.1,83.2l7.4,1.1c-1.4,4-3.6,7.1-6.5,9.2c-2.9,2.1-6.3,3.2-10.2,3.2c-4.4,0-7.8-1.3-10.3-4
			c-2.5-2.6-3.7-6.5-3.7-11.5c0-4.1,0.8-7.8,2.5-11.2c1.7-3.4,3.9-6,6.9-7.8c2.9-1.8,6.1-2.7,9.6-2.7c3.9,0,7,1,9.4,3.1
			c2.4,2.1,3.8,4.9,4.2,8.5l-7.1,0.7c-0.4-2.1-1.1-3.6-2.3-4.5c-1.1-0.9-2.6-1.4-4.5-1.4c-2,0-3.9,0.6-5.7,1.9
			c-1.8,1.2-3.2,3.2-4.2,5.8c-1.1,2.6-1.6,5.3-1.6,7.9c0,2.9,0.7,5.1,2.1,6.6c1.4,1.6,3.1,2.3,5.1,2.3c1.9,0,3.7-0.6,5.2-1.9
			C577.2,87.4,578.4,85.6,579.1,83.2z"/>
		<path class="st18" d="M589.2,96.1l7.5-35.8h7l-7.5,35.8H589.2z"/>
		<path class="st18" d="M608.5,70.1h7l-3.2,15.4c-0.4,1.8-0.6,3-0.6,3.4c0,0.7,0.3,1.4,0.8,1.9c0.6,0.5,1.3,0.8,2.1,0.8
			c0.6,0,1.2-0.1,1.8-0.4c0.6-0.2,1.2-0.6,1.9-1.1c0.6-0.5,1.2-1,1.7-1.6c0.5-0.6,1-1.4,1.4-2.4c0.3-0.7,0.6-2,1-3.7l2.6-12.4h7
			l-5.4,25.9h-6.5l0.7-3.5c-2.9,2.8-6,4.1-9.4,4.1c-2.1,0-3.8-0.6-5-1.8c-1.2-1.2-1.8-2.9-1.8-4.9c0-0.9,0.3-2.7,0.8-5.3L608.5,70.1
			z"/>
		<path class="st18" d="M633.5,96.1l7.5-35.8h7l-2.5,12c1.3-1,2.5-1.7,3.6-2.1c1.1-0.4,2.3-0.6,3.6-0.6c2.7,0,4.9,0.9,6.6,2.7
			c1.6,1.8,2.5,4.5,2.5,8c0,2.4-0.4,4.7-1.2,6.9c-0.8,2.2-1.8,4-3.1,5.4c-1.3,1.4-2.7,2.4-4.1,3.1c-1.4,0.7-2.9,1-4.5,1
			c-3.7,0-6.4-1.6-8.2-4.9l-0.9,4.3H633.5z M643,85.5c0,1.7,0.5,3.2,1.5,4.2c1,1.1,2.1,1.6,3.5,1.6c1.2,0,2.3-0.4,3.4-1.3
			c1.1-0.8,2-2.2,2.7-4.1c0.7-1.9,1.1-3.7,1.1-5.6c0-1.8-0.5-3.3-1.4-4.3c-1-1.1-2.1-1.6-3.5-1.6c-1.8,0-3.3,0.8-4.5,2.4
			C643.8,79.2,643,82,643,85.5z"/>
	</g>
	<g>
		<path class="st17" d="M579.1,83.2l7.4,1.1c-1.4,4-3.6,7.1-6.5,9.2c-2.9,2.1-6.3,3.2-10.2,3.2c-4.4,0-7.8-1.3-10.3-4
			c-2.5-2.6-3.7-6.5-3.7-11.5c0-4.1,0.8-7.8,2.5-11.2c1.7-3.4,3.9-6,6.9-7.8c2.9-1.8,6.1-2.7,9.6-2.7c3.9,0,7,1,9.4,3.1
			c2.4,2.1,3.8,4.9,4.2,8.5l-7.1,0.7c-0.4-2.1-1.1-3.6-2.3-4.5c-1.1-0.9-2.6-1.4-4.5-1.4c-2,0-3.9,0.6-5.7,1.9
			c-1.8,1.2-3.2,3.2-4.2,5.8c-1.1,2.6-1.6,5.3-1.6,7.9c0,2.9,0.7,5.1,2.1,6.6c1.4,1.6,3.1,2.3,5.1,2.3c1.9,0,3.7-0.6,5.2-1.9
			C577.2,87.4,578.4,85.6,579.1,83.2z"/>
		<path class="st17" d="M589.2,96.1l7.5-35.8h7l-7.5,35.8H589.2z"/>
		<path class="st17" d="M608.5,70.1h7l-3.2,15.4c-0.4,1.8-0.6,3-0.6,3.4c0,0.7,0.3,1.4,0.8,1.9c0.6,0.5,1.3,0.8,2.1,0.8
			c0.6,0,1.2-0.1,1.8-0.4c0.6-0.2,1.2-0.6,1.9-1.1c0.6-0.5,1.2-1,1.7-1.6c0.5-0.6,1-1.4,1.4-2.4c0.3-0.7,0.6-2,1-3.7l2.6-12.4h7
			l-5.4,25.9h-6.5l0.7-3.5c-2.9,2.8-6,4.1-9.4,4.1c-2.1,0-3.8-0.6-5-1.8c-1.2-1.2-1.8-2.9-1.8-4.9c0-0.9,0.3-2.7,0.8-5.3L608.5,70.1
			z"/>
		<path class="st17" d="M633.5,96.1l7.5-35.8h7l-2.5,12c1.3-1,2.5-1.7,3.6-2.1c1.1-0.4,2.3-0.6,3.6-0.6c2.7,0,4.9,0.9,6.6,2.7
			c1.6,1.8,2.5,4.5,2.5,8c0,2.4-0.4,4.7-1.2,6.9c-0.8,2.2-1.8,4-3.1,5.4c-1.3,1.4-2.7,2.4-4.1,3.1c-1.4,0.7-2.9,1-4.5,1
			c-3.7,0-6.4-1.6-8.2-4.9l-0.9,4.3H633.5z M643,85.5c0,1.7,0.5,3.2,1.5,4.2c1,1.1,2.1,1.6,3.5,1.6c1.2,0,2.3-0.4,3.4-1.3
			c1.1-0.8,2-2.2,2.7-4.1c0.7-1.9,1.1-3.7,1.1-5.6c0-1.8-0.5-3.3-1.4-4.3c-1-1.1-2.1-1.6-3.5-1.6c-1.8,0-3.3,0.8-4.5,2.4
			C643.8,79.2,643,82,643,85.5z"/>
	</g>
</g>
</svg>